# xmcd
#
# Track frame offsets:
#	150
#	10585
#	24667
#	36622
#	48342
#	59242
#	71607
#	84392
#	95767
#	109090
#	120177
#	129892
#
# Disc length: 1941 seconds
#
# Revision: 0
# Processed by: cddbd v1.5PL3 Copyright (c) Steve Scherf et al.
# Submitted via: audiograbber 1.83.01
#
DISCID=9d07930c
DTITLE=The Twilight Ranchers - Who Stole That Train
DYEAR=2004
DGENRE=Hillbilly
TTITLE0=Who Stole That Train?
TTITLE1=Drivin' 45
TTITLE2=Too Many Women
TTITLE3=I Don't Know Anything About Love
TTITLE4=Feelin' Low
TTITLE5=Lost John
TTITLE6=When I Made My Move
TTITLE7=Twin Guitar Roundup
TTITLE8=Three Empty Bottles
TTITLE9=No Shoes Boogie
TTITLE10=Get Rhythm
TTITLE11=Big Dig Boogie
EXTD=
EXTT0=
EXTT1=
EXTT2=
EXTT3=
EXTT4=
EXTT5=
EXTT6=
EXTT7=
EXTT8=
EXTT9=
EXTT10=
EXTT11=
PLAYORDER=
